<svg xmlns="http://www.w3.org/2000/svg" viewBox="0 0 143.23 33.57"><defs><style>.a{fill:#1a793e;}.a,.b{stroke:#fff;stroke-miterlimit:10;}.b{fill:#b2cfb3;}</style></defs><title>Logo mega de hoje megadehoje</title><path d="M43.71,18.53l.11-9.23h-.07l-2.26,9.23H39.34L37.15,9.3h0l.09,9.23H34.44V5.08h3.83l2.17,8.66h.08l2.11-8.66h4.06V18.53Z"/><path d="M49.09,18.53V5.08h6.49V7.76H52V10.4H55.3v2.51H52V15.8h3.82v2.73Z"/><path d="M64.59,18.53a6.87,6.87,0,0,1-2.15.31,4.81,4.81,0,0,1-4-1.95,6.63,6.63,0,0,1-1.06-2.22,10.21,10.21,0,0,1-.37-2.86,10.31,10.31,0,0,1,.37-2.88,7.09,7.09,0,0,1,1-2.25,4.92,4.92,0,0,1,1.64-1.45,4.51,4.51,0,0,1,2.14-.51,5.05,5.05,0,0,1,2.29.46A4.11,4.11,0,0,1,66,6.35L64.34,8.58a2.17,2.17,0,0,0-1.87-1A1.83,1.83,0,0,0,61.38,8a2.61,2.61,0,0,0-.76.9,4.83,4.83,0,0,0-.45,1.33A9.31,9.31,0,0,0,60,11.81a9.21,9.21,0,0,0,.13,1.61,4.83,4.83,0,0,0,.43,1.33,2.72,2.72,0,0,0,.75.91,1.72,1.72,0,0,0,1.08.34,1.77,1.77,0,0,0,1.07-.28V13.21H62V10.57h4.11v7.16A5.21,5.21,0,0,1,64.59,18.53Z"/><path d="M74.2,18.53l-.55-2.45h-3l-.55,2.45H67L70.31,5.08h3.82l3.25,13.45ZM72.19,8h-.08L71,13.72h2.3Z"/><path d="M91.38,11.84a10.66,10.66,0,0,1-.33,2.76,5.76,5.76,0,0,1-1,2.11,4.57,4.57,0,0,1-1.74,1.35,6.13,6.13,0,0,1-2.5.47H82V5.08h3.78a6.13,6.13,0,0,1,2.5.47A4.5,4.5,0,0,1,90,6.91a5.86,5.86,0,0,1,1,2.13A10.92,10.92,0,0,1,91.38,11.84Zm-3.06,0a5.54,5.54,0,0,0-.69-3.06,2.07,2.07,0,0,0-1.8-1h-.74v8.13h.74a2.08,2.08,0,0,0,1.8-1A5.41,5.41,0,0,0,88.32,11.84Z"/><path d="M93.22,18.53V5.08h6.5V7.76H96.13V10.4h3.31v2.51H96.13V15.8H100v2.73Z"/><path d="M111.69,18.53V12.91h-3.13v5.62h-3V5.08h3v5.09h3.13V5.08h3V18.53Z"/><path d="M126.89,11.77a11,11,0,0,1-.36,2.91,6.92,6.92,0,0,1-1,2.26,4.64,4.64,0,0,1-1.62,1.44,4.81,4.81,0,0,1-4.31,0,4.67,4.67,0,0,1-1.63-1.44,7.12,7.12,0,0,1-1-2.26,10.63,10.63,0,0,1-.37-2.91,10.86,10.86,0,0,1,.36-2.9,6.68,6.68,0,0,1,1-2.22,4.73,4.73,0,0,1,1.63-1.43,4.94,4.94,0,0,1,4.33,0,4.61,4.61,0,0,1,1.62,1.43,6.7,6.7,0,0,1,1,2.22A10.86,10.86,0,0,1,126.89,11.77Zm-3.12,0a9.21,9.21,0,0,0-.13-1.63,5.39,5.39,0,0,0-.39-1.3,2.4,2.4,0,0,0-.63-.86,1.43,1.43,0,0,0-1.8,0,2.44,2.44,0,0,0-.65.86,5.4,5.4,0,0,0-.38,1.3,11.13,11.13,0,0,0,0,3.26,5.23,5.23,0,0,0,.38,1.31,2.62,2.62,0,0,0,.65.88,1.43,1.43,0,0,0,1.8,0,2.58,2.58,0,0,0,.63-.88,5.21,5.21,0,0,0,.39-1.31A9.28,9.28,0,0,0,123.77,11.77Z"/><path d="M133.23,17.62a3.51,3.51,0,0,1-3,1.22,3.65,3.65,0,0,1-3.68-2.91l2.47-1.1a2.06,2.06,0,0,0,.37.79.82.82,0,0,0,.69.35.8.8,0,0,0,.83-.52,4.08,4.08,0,0,0,.2-1.42V5.08h3v9.21A5.36,5.36,0,0,1,133.23,17.62Z"/><path d="M136.5,18.53V5.08H143V7.76h-3.59V10.4h3.31v2.51h-3.31V15.8h3.82v2.73Z"/><path d="M56.25,25.93l-1.19-2.86h-.9v2.86H54V20.27H55.1a1.85,1.85,0,0,1,.44.06,1.19,1.19,0,0,1,.42.21,1.31,1.31,0,0,1,.32.43,1.63,1.63,0,0,1,.12.68,1.83,1.83,0,0,1-.1.66,1.58,1.58,0,0,1-.28.44,1,1,0,0,1-.38.24,1.14,1.14,0,0,1-.4.08l1.2,2.86Zm0-4.28a1.45,1.45,0,0,0-.1-.59.85.85,0,0,0-.26-.37.93.93,0,0,0-.38-.2,1.61,1.61,0,0,0-.44-.06h-.9v2.48h1a1.05,1.05,0,0,0,.84-.34A1.4,1.4,0,0,0,56.24,21.65Z"/><path d="M57.34,24a4.79,4.79,0,0,0,.06.79,2,2,0,0,0,.19.61,1.11,1.11,0,0,0,.33.4.84.84,0,0,0,1-.05,1.52,1.52,0,0,0,.31-.48l.13.07a1.35,1.35,0,0,1-.36.54.88.88,0,0,1-.62.23,1,1,0,0,1-.54-.15,1.19,1.19,0,0,1-.38-.42,2.51,2.51,0,0,1-.24-.64,4.46,4.46,0,0,1-.08-.85,4.22,4.22,0,0,1,.08-.82,2.26,2.26,0,0,1,.24-.65,1.24,1.24,0,0,1,.37-.44.93.93,0,0,1,.52-.15.9.9,0,0,1,.53.15,1.08,1.08,0,0,1,.34.39,2,2,0,0,1,.19.58,3.87,3.87,0,0,1,0,.69V24Zm2-.16a3.8,3.8,0,0,0-.06-.7,1.83,1.83,0,0,0-.17-.53,1,1,0,0,0-.3-.35.68.68,0,0,0-.42-.13.65.65,0,0,0-.48.19,1.36,1.36,0,0,0-.32.45,2.45,2.45,0,0,0-.18.56,3.62,3.62,0,0,0,0,.51Z"/><path d="M62,24.94a1.3,1.3,0,0,1-.24.81.81.81,0,0,1-.67.31.94.94,0,0,1-.93-.66l.13-.09a.85.85,0,0,0,.81.59.62.62,0,0,0,.52-.26,1.05,1.05,0,0,0,.2-.69,1,1,0,0,0-.08-.41.79.79,0,0,0-.2-.27,1,1,0,0,0-.26-.16L61,24a2.29,2.29,0,0,1-.27-.14.8.8,0,0,1-.21-.2.84.84,0,0,1-.15-.28A1.48,1.48,0,0,1,60.3,23a1.1,1.1,0,0,1,.07-.41,1.09,1.09,0,0,1,.19-.33.93.93,0,0,1,.27-.22.68.68,0,0,1,.34-.08.83.83,0,0,1,.51.15,1,1,0,0,1,.32.4l-.13.09a.73.73,0,0,0-.7-.48.58.58,0,0,0-.49.25.91.91,0,0,0-.2.62,1.13,1.13,0,0,0,0,.34.7.7,0,0,0,.13.24.67.67,0,0,0,.2.17c.08.05.18.09.28.14a1.59,1.59,0,0,1,.29.15,1.05,1.05,0,0,1,.27.2,1,1,0,0,1,.19.3A1.1,1.1,0,0,1,62,24.94Z"/><path d="M64.91,25a1.68,1.68,0,0,1-.35.81.86.86,0,0,1-.67.3.79.79,0,0,1-.49-.14,1.06,1.06,0,0,1-.28-.35A1.8,1.8,0,0,1,63,25.1a4.09,4.09,0,0,1,0-.47V22.07h.18v2.56c0,.13,0,.28,0,.43a1.3,1.3,0,0,0,.11.41.79.79,0,0,0,.22.31.61.61,0,0,0,.39.12.72.72,0,0,0,.45-.15,1.32,1.32,0,0,0,.32-.38,1.79,1.79,0,0,0,.19-.52,2.67,2.67,0,0,0,.07-.54V22.07h.17V25a1.93,1.93,0,0,0,0,.23v.27a2.62,2.62,0,0,1,0,.27c0,.09,0,.16,0,.21H65a1.22,1.22,0,0,1,0-.21,2.26,2.26,0,0,1,0-.27c0-.09,0-.18,0-.27V25Z"/><path d="M66.47,25.93V19.88h.17v6.05Z"/><path d="M68.6,26a.59.59,0,0,1-.29-.07.52.52,0,0,1-.17-.19.77.77,0,0,1-.08-.28,2.06,2.06,0,0,1,0-.36V22.23h-.52v-.16H68V20.93h.17v1.14h.71v.16h-.71v2.86a1.35,1.35,0,0,0,.09.57.36.36,0,0,0,.33.17h.15a.52.52,0,0,0,.15-.07l0,.15A1,1,0,0,1,68.6,26Z"/><path d="M71.49,25.05c0,.15,0,.31,0,.47s0,.3,0,.41h-.17c0-.05,0-.12,0-.2s0-.17,0-.26v-.25a1.62,1.62,0,0,1,0-.21h0a1.58,1.58,0,0,1-.37.78.87.87,0,0,1-.61.24A.91.91,0,0,1,70,26a.86.86,0,0,1-.28-.2,1,1,0,0,1-.2-.35,1.5,1.5,0,0,1-.08-.5,1.33,1.33,0,0,1,.14-.65,1.14,1.14,0,0,1,.36-.39,1.2,1.2,0,0,1,.47-.19,2.42,2.42,0,0,1,.45,0h.44v-.3a1.58,1.58,0,0,0-.23-1,.71.71,0,0,0-.6-.3.82.82,0,0,0-.43.12,1,1,0,0,0-.33.33l-.12-.11a1.15,1.15,0,0,1,.39-.37,1,1,0,0,1,.49-.13.88.88,0,0,1,.74.34,1.81,1.81,0,0,1,.26,1.07Zm-.17-1.24h-.4a2.25,2.25,0,0,0-.44,0,1.26,1.26,0,0,0-.42.16.91.91,0,0,0-.3.34,1.15,1.15,0,0,0-.12.57,1.44,1.44,0,0,0,.06.45,1,1,0,0,0,.18.29.6.6,0,0,0,.23.16.56.56,0,0,0,.25.05.71.71,0,0,0,.46-.15,1.28,1.28,0,0,0,.3-.41,2.13,2.13,0,0,0,.15-.54,4,4,0,0,0,0-.58Z"/><path d="M73.69,26.06a.89.89,0,0,1-.5-.15,1.42,1.42,0,0,1-.37-.43,2.26,2.26,0,0,1-.23-.65,3.6,3.6,0,0,1-.08-.83,4.28,4.28,0,0,1,.07-.83,2.26,2.26,0,0,1,.23-.65,1.13,1.13,0,0,1,.37-.43.9.9,0,0,1,.51-.15.81.81,0,0,1,.64.28,1.6,1.6,0,0,1,.36.75h0V19.88h.18v6.05H74.7V25h0a1.63,1.63,0,0,1-.35.75A.81.81,0,0,1,73.69,26.06Zm1-2.06a3.57,3.57,0,0,0-.07-.76,2.18,2.18,0,0,0-.19-.61,1.07,1.07,0,0,0-.32-.4.69.69,0,0,0-.44-.15.72.72,0,0,0-.45.15,1.16,1.16,0,0,0-.31.4,2.57,2.57,0,0,0-.19.61,4.42,4.42,0,0,0-.06.76,4.35,4.35,0,0,0,.06.74,2.35,2.35,0,0,0,.19.6,1.11,1.11,0,0,0,.31.41.75.75,0,0,0,.9,0,1.13,1.13,0,0,0,.32-.41,2.36,2.36,0,0,0,.18-.6A3.51,3.51,0,0,0,74.71,24Z"/><path d="M78.39,24a3.58,3.58,0,0,1-.09.83,2,2,0,0,1-.24.65,1.32,1.32,0,0,1-.38.43.87.87,0,0,1-.5.15.84.84,0,0,1-.5-.15,1.32,1.32,0,0,1-.38-.43,2,2,0,0,1-.24-.65A3.58,3.58,0,0,1,76,24a4.25,4.25,0,0,1,.08-.83,2.26,2.26,0,0,1,.23-.65,1.24,1.24,0,0,1,.38-.43,1,1,0,0,1,.52-.15.87.87,0,0,1,.5.15,1.15,1.15,0,0,1,.38.43,2,2,0,0,1,.24.65A3.58,3.58,0,0,1,78.39,24Zm-.18,0a3.57,3.57,0,0,0-.07-.76,2.57,2.57,0,0,0-.19-.61,1.2,1.2,0,0,0-.33-.4.69.69,0,0,0-.44-.15.72.72,0,0,0-.45.15,1.2,1.2,0,0,0-.33.4,2.57,2.57,0,0,0-.19.61,4.42,4.42,0,0,0-.06.76,4.35,4.35,0,0,0,.06.74,2.35,2.35,0,0,0,.19.6,1.15,1.15,0,0,0,.33.41.75.75,0,0,0,.9,0,1.13,1.13,0,0,0,.32-.41,2.35,2.35,0,0,0,.2-.6A4.35,4.35,0,0,0,78.21,24Z"/><path d="M80.92,24.94a1.3,1.3,0,0,1-.24.81.81.81,0,0,1-.67.31.93.93,0,0,1-.93-.66l.13-.09a.85.85,0,0,0,.81.59.62.62,0,0,0,.52-.26,1.11,1.11,0,0,0,.2-.69,1,1,0,0,0-.08-.41.79.79,0,0,0-.2-.27,1,1,0,0,0-.26-.16L79.94,24a1.71,1.71,0,0,1-.27-.14.8.8,0,0,1-.21-.2.84.84,0,0,1-.15-.28,1.48,1.48,0,0,1,0-.39,1.1,1.1,0,0,1,.07-.41,1.09,1.09,0,0,1,.19-.33.93.93,0,0,1,.27-.22.68.68,0,0,1,.34-.08.85.85,0,0,1,.51.15,1,1,0,0,1,.32.4l-.13.09a.73.73,0,0,0-.7-.48.58.58,0,0,0-.49.25.91.91,0,0,0-.2.62,1.13,1.13,0,0,0,0,.34.7.7,0,0,0,.13.24.67.67,0,0,0,.2.17,2.43,2.43,0,0,0,.28.14,1.59,1.59,0,0,1,.29.15,1.05,1.05,0,0,1,.27.2,1,1,0,0,1,.19.3A1.1,1.1,0,0,1,80.92,24.94Z"/><path d="M84.32,26.06a.89.89,0,0,1-.5-.15,1.42,1.42,0,0,1-.37-.43,2.26,2.26,0,0,1-.23-.65,4.35,4.35,0,0,1,0-1.66,2.26,2.26,0,0,1,.22-.65,1.13,1.13,0,0,1,.37-.43.9.9,0,0,1,.51-.15.81.81,0,0,1,.64.28,1.6,1.6,0,0,1,.36.75h0V19.88h.18v6.05h-.18V25h0a1.73,1.73,0,0,1-.34.75A.85.85,0,0,1,84.32,26.06Zm1-2.06a4.42,4.42,0,0,0-.06-.76,2.57,2.57,0,0,0-.2-.61,1.07,1.07,0,0,0-.32-.4.72.72,0,0,0-.88,0,1.07,1.07,0,0,0-.32.4,2.57,2.57,0,0,0-.18.61,4.42,4.42,0,0,0-.06.76,4.35,4.35,0,0,0,.06.74,2.36,2.36,0,0,0,.18.6,1,1,0,0,0,.32.41.67.67,0,0,0,.44.15.72.72,0,0,0,.45-.15,1,1,0,0,0,.32-.41,2.83,2.83,0,0,0,.19-.6A4.35,4.35,0,0,0,85.34,24Z"/><path d="M88.61,25.05c0,.15,0,.31,0,.47s0,.3,0,.41h-.17c0-.05,0-.12,0-.2s0-.17,0-.26v-.25a1.62,1.62,0,0,1,0-.21h0a1.58,1.58,0,0,1-.37.78.87.87,0,0,1-.61.24.91.91,0,0,1-.32-.06.76.76,0,0,1-.28-.2,1,1,0,0,1-.2-.35,1.28,1.28,0,0,1-.08-.5,1.33,1.33,0,0,1,.14-.65,1.14,1.14,0,0,1,.36-.39,1.2,1.2,0,0,1,.47-.19,2.42,2.42,0,0,1,.45,0h.44v-.3a1.58,1.58,0,0,0-.23-1,.71.71,0,0,0-.6-.3.82.82,0,0,0-.43.12,1,1,0,0,0-.33.33l-.12-.11a1.15,1.15,0,0,1,.39-.37,1,1,0,0,1,.49-.13.88.88,0,0,1,.74.34,1.81,1.81,0,0,1,.26,1.07Zm-.17-1.24H88a2.25,2.25,0,0,0-.44,0,1.26,1.26,0,0,0-.42.16.91.91,0,0,0-.3.34,1.15,1.15,0,0,0-.12.57,1.44,1.44,0,0,0,.06.45,1,1,0,0,0,.18.29.53.53,0,0,0,.23.16.56.56,0,0,0,.25.05.71.71,0,0,0,.46-.15,1.28,1.28,0,0,0,.3-.41,2.13,2.13,0,0,0,.15-.54,4,4,0,0,0,0-.58Z"/><path d="M94.42,21.94a.73.73,0,0,1,.49.14,1,1,0,0,1,.28.35,1.73,1.73,0,0,1,.12.46,4.12,4.12,0,0,1,0,.48v2.56h-.18V23.37a3.17,3.17,0,0,0,0-.43,1.64,1.64,0,0,0-.1-.41.81.81,0,0,0-.23-.31.61.61,0,0,0-.39-.12.67.67,0,0,0-.44.15,1,1,0,0,0-.31.38,1.92,1.92,0,0,0-.18.51,2.64,2.64,0,0,0-.06.55v2.24h-.18V23.37c0-.14,0-.29,0-.44a1.72,1.72,0,0,0-.1-.42.81.81,0,0,0-.21-.3.6.6,0,0,0-.37-.11.72.72,0,0,0-.45.15,1,1,0,0,0-.32.38,1.63,1.63,0,0,0-.19.51,2.13,2.13,0,0,0-.07.55v2.24h-.17V23a2,2,0,0,0,0-.23v-.27a2.44,2.44,0,0,1,0-.27,1.56,1.56,0,0,1,0-.2h.17a1.15,1.15,0,0,1,0,.2,2.44,2.44,0,0,1,0,.27c0,.09,0,.19,0,.27V23h0a1.68,1.68,0,0,1,.35-.8.86.86,0,0,1,.67-.3.8.8,0,0,1,.39.09.64.64,0,0,1,.25.24,1,1,0,0,1,.13.36,2.75,2.75,0,0,1,.06.44h0a1.5,1.5,0,0,1,.12-.44,1.09,1.09,0,0,1,.22-.36A.76.76,0,0,1,94,22,.79.79,0,0,1,94.42,21.94Z"/><path d="M96.58,24a4.79,4.79,0,0,0,.06.79,2,2,0,0,0,.19.61,1.11,1.11,0,0,0,.33.4.84.84,0,0,0,1-.05,1.52,1.52,0,0,0,.31-.48l.13.07a1.46,1.46,0,0,1-.36.54.88.88,0,0,1-.62.23,1,1,0,0,1-.54-.15,1.19,1.19,0,0,1-.38-.42,2.51,2.51,0,0,1-.24-.64A4.46,4.46,0,0,1,96.4,24a4.22,4.22,0,0,1,.08-.82,2.26,2.26,0,0,1,.24-.65,1.24,1.24,0,0,1,.37-.44.91.91,0,0,1,.52-.15.92.92,0,0,1,.53.15,1.08,1.08,0,0,1,.34.39,2,2,0,0,1,.19.58,5.09,5.09,0,0,1,0,.69V24Zm2-.16a3.8,3.8,0,0,0-.06-.7,2.2,2.2,0,0,0-.17-.53,1,1,0,0,0-.3-.35.68.68,0,0,0-.42-.13.65.65,0,0,0-.48.19,1.36,1.36,0,0,0-.32.45,2,2,0,0,0-.18.56,3.62,3.62,0,0,0,0,.51Z"/><path d="M101.68,25a1.73,1.73,0,0,1-.34.75.85.85,0,0,1-.66.29.89.89,0,0,1-.5-.15,1.42,1.42,0,0,1-.37-.43,2.26,2.26,0,0,1-.23-.65A4.25,4.25,0,0,1,99.5,24a3.6,3.6,0,0,1,.08-.83,2.26,2.26,0,0,1,.22-.65,1.13,1.13,0,0,1,.37-.43.9.9,0,0,1,.51-.15.81.81,0,0,1,.64.28,1.6,1.6,0,0,1,.36.75h0v-.9h.18v3.66a7.34,7.34,0,0,1-.05.85,2.44,2.44,0,0,1-.16.67,1.06,1.06,0,0,1-.36.44,1,1,0,0,1-.6.16,1.13,1.13,0,0,1-.64-.2,1.19,1.19,0,0,1-.42-.54l.15-.12a1.08,1.08,0,0,0,.36.51.84.84,0,0,0,.55.19.82.82,0,0,0,.5-.14.88.88,0,0,0,.3-.4,2,2,0,0,0,.15-.61,6.65,6.65,0,0,0,0-.81V25Zm0-1a4.59,4.59,0,0,0-.06-.76,2.35,2.35,0,0,0-.2-.6,1,1,0,0,0-.32-.41.72.72,0,0,0-.88,0,1.07,1.07,0,0,0-.32.4,2.32,2.32,0,0,0-.18.61,4.72,4.72,0,0,0,0,1.5,2.49,2.49,0,0,0,.18.6,1.07,1.07,0,0,0,.32.4.67.67,0,0,0,.44.15.72.72,0,0,0,.45-.15,1.09,1.09,0,0,0,.32-.4,2.83,2.83,0,0,0,.19-.6A4.27,4.27,0,0,0,101.7,24Z"/><path d="M105,25.05c0,.15,0,.31,0,.47s0,.3,0,.41h-.17c0-.05,0-.12,0-.2s0-.17,0-.26v-.25a1.62,1.62,0,0,1,0-.21h0a1.58,1.58,0,0,1-.37.78.87.87,0,0,1-.61.24.91.91,0,0,1-.32-.06.86.86,0,0,1-.28-.2,1,1,0,0,1-.2-.35,1.5,1.5,0,0,1-.08-.5,1.33,1.33,0,0,1,.14-.65,1.14,1.14,0,0,1,.36-.39,1.2,1.2,0,0,1,.47-.19,2.42,2.42,0,0,1,.45,0h.44v-.3a1.58,1.58,0,0,0-.23-1,.71.71,0,0,0-.6-.3.82.82,0,0,0-.43.12,1,1,0,0,0-.33.33l-.12-.11a1.15,1.15,0,0,1,.39-.37,1,1,0,0,1,.49-.13.88.88,0,0,1,.74.34,1.81,1.81,0,0,1,.26,1.07Zm-.17-1.24h-.4a2.25,2.25,0,0,0-.44,0,1.26,1.26,0,0,0-.42.16.91.91,0,0,0-.3.34,1.15,1.15,0,0,0-.12.57,1.44,1.44,0,0,0,.06.45,1,1,0,0,0,.18.29.6.6,0,0,0,.23.16.56.56,0,0,0,.25.05.71.71,0,0,0,.46-.15,1.28,1.28,0,0,0,.3-.41,2.13,2.13,0,0,0,.15-.54,4,4,0,0,0,0-.58Z"/><path d="M105.92,24v-.16h1V24Z"/><path d="M109.41,24.94a1.36,1.36,0,0,1-.23.81.81.81,0,0,1-.67.31.93.93,0,0,1-.93-.66l.13-.09a.85.85,0,0,0,.81.59.64.64,0,0,0,.52-.26,1.11,1.11,0,0,0,.2-.69,1,1,0,0,0-.08-.41,1,1,0,0,0-.2-.27,1,1,0,0,0-.26-.16l-.26-.12a1.71,1.71,0,0,1-.27-.14.7.7,0,0,1-.22-.2.82.82,0,0,1-.14-.28,1.15,1.15,0,0,1,0-.39,1.06,1.06,0,0,1,.25-.74.85.85,0,0,1,.28-.22.63.63,0,0,1,.34-.08.85.85,0,0,1,.51.15,1,1,0,0,1,.31.4l-.13.09a.73.73,0,0,0-.69-.48.62.62,0,0,0-.5.25,1,1,0,0,0-.2.62,1.59,1.59,0,0,0,0,.34.92.92,0,0,0,.13.24.87.87,0,0,0,.21.17,2.43,2.43,0,0,0,.28.14l.29.15a1.05,1.05,0,0,1,.27.2,1.17,1.17,0,0,1,.19.3A1.11,1.11,0,0,1,109.41,24.94Z"/><path d="M110.37,24a4.79,4.79,0,0,0,.06.79,2.31,2.31,0,0,0,.19.61,1.11,1.11,0,0,0,.33.4.84.84,0,0,0,1-.05,1.52,1.52,0,0,0,.31-.48l.13.07a1.44,1.44,0,0,1-.35.54,1,1,0,0,1-1.16.08,1.22,1.22,0,0,1-.39-.42,2.19,2.19,0,0,1-.23-.64,3.78,3.78,0,0,1-.08-.85,3.57,3.57,0,0,1,.08-.82,2.26,2.26,0,0,1,.23-.65,1.24,1.24,0,0,1,.37-.44.93.93,0,0,1,.52-.15.9.9,0,0,1,.53.15,1.08,1.08,0,0,1,.34.39,2,2,0,0,1,.19.58,3.85,3.85,0,0,1,.06.69V24Zm2-.16a3.8,3.8,0,0,0-.06-.7,1.83,1.83,0,0,0-.18-.53,1,1,0,0,0-.3-.35.68.68,0,0,0-.42-.13.65.65,0,0,0-.48.19,1.36,1.36,0,0,0-.32.45,2.45,2.45,0,0,0-.18.56,3.62,3.62,0,0,0,0,.51Z"/><path d="M113.76,23a1.51,1.51,0,0,1,.35-.8.83.83,0,0,1,.66-.3.73.73,0,0,1,.49.14,1,1,0,0,1,.28.35,1.73,1.73,0,0,1,.12.46,4.12,4.12,0,0,1,0,.48v2.56h-.17V23.37a3.22,3.22,0,0,0,0-.43,1.64,1.64,0,0,0-.1-.41.81.81,0,0,0-.23-.31.61.61,0,0,0-.39-.12.72.72,0,0,0-.45.15,1.1,1.1,0,0,0-.32.38,1.93,1.93,0,0,0-.19.51,2.64,2.64,0,0,0-.06.55v2.24h-.18V22.81a2.35,2.35,0,0,1,0-.27c0-.09,0-.18,0-.27s0-.15,0-.2h.18a1.56,1.56,0,0,0,0,.2v.27a2.53,2.53,0,0,1,0,.27V23Z"/><path d="M118.76,25.05c0,.15,0,.31,0,.47s0,.3,0,.41h-.17c0-.05,0-.12,0-.2a2.26,2.26,0,0,1,0-.26,2.18,2.18,0,0,1,0-.25,1.62,1.62,0,0,1,0-.21h0a1.58,1.58,0,0,1-.37.78.85.85,0,0,1-.61.24.81.81,0,0,1-.31-.06.8.8,0,0,1-.29-.2,1.19,1.19,0,0,1-.2-.35,1.5,1.5,0,0,1-.08-.5,1.23,1.23,0,0,1,.15-.65,1,1,0,0,1,.36-.39,1.1,1.1,0,0,1,.46-.19,2.42,2.42,0,0,1,.45,0h.44v-.3a1.58,1.58,0,0,0-.23-1,.71.71,0,0,0-.6-.3.79.79,0,0,0-.42.12,1,1,0,0,0-.34.33l-.12-.11a1.1,1.1,0,0,1,.4-.37,1,1,0,0,1,.48-.13.88.88,0,0,1,.74.34,1.74,1.74,0,0,1,.26,1.07Zm-.17-1.24h-.39a2.28,2.28,0,0,0-.45,0,1.13,1.13,0,0,0-.41.16.85.85,0,0,0-.31.34,1.15,1.15,0,0,0-.12.57,1.18,1.18,0,0,0,.07.45.82.82,0,0,0,.17.29.6.6,0,0,0,.23.16.59.59,0,0,0,.25.05.71.71,0,0,0,.46-.15,1.28,1.28,0,0,0,.3-.41,2.13,2.13,0,0,0,.15-.54,4,4,0,0,0,0-.58Z"/><path d="M65,31a4.79,4.79,0,0,0,.06.79,2.31,2.31,0,0,0,.19.61,1.11,1.11,0,0,0,.33.4.84.84,0,0,0,1,0,1.52,1.52,0,0,0,.31-.48l.13.07a1.44,1.44,0,0,1-.35.54.92.92,0,0,1-.63.23.94.94,0,0,1-.53-.15,1.22,1.22,0,0,1-.39-.42,2.19,2.19,0,0,1-.23-.64A3.78,3.78,0,0,1,64.8,31a3.57,3.57,0,0,1,.08-.82,2.26,2.26,0,0,1,.23-.65,1.35,1.35,0,0,1,.37-.44.93.93,0,0,1,.52-.15.9.9,0,0,1,.53.15,1.08,1.08,0,0,1,.34.39,2,2,0,0,1,.19.58,3.85,3.85,0,0,1,.06.69V31Zm2-.16a3.8,3.8,0,0,0-.06-.7,1.83,1.83,0,0,0-.18-.53,1,1,0,0,0-.3-.35.68.68,0,0,0-.42-.13.65.65,0,0,0-.48.19,1.36,1.36,0,0,0-.32.45,2.45,2.45,0,0,0-.18.56,3.62,3.62,0,0,0,0,.51Z"/><path d="M69.6,32.93V26.88h.17v6.05Z"/><path d="M73.28,31a3.6,3.6,0,0,1-.08.83,2.59,2.59,0,0,1-.24.65,1.32,1.32,0,0,1-.38.43.93.93,0,0,1-1,0,1.45,1.45,0,0,1-.38-.43,2.59,2.59,0,0,1-.24-.65,4.25,4.25,0,0,1-.08-.83,3.6,3.6,0,0,1,.08-.83,2.26,2.26,0,0,1,.23-.65,1.15,1.15,0,0,1,.38-.43.91.91,0,0,1,.52-.15.89.89,0,0,1,.5.15,1.15,1.15,0,0,1,.38.43,2.59,2.59,0,0,1,.24.65A3.6,3.6,0,0,1,73.28,31Zm-.17,0a3.57,3.57,0,0,0-.07-.76,2.57,2.57,0,0,0-.2-.61,1.07,1.07,0,0,0-.32-.4.71.71,0,0,0-.44-.15.77.77,0,0,0-.46.15,1.18,1.18,0,0,0-.32.4,2.57,2.57,0,0,0-.19.61A4.37,4.37,0,0,0,71,31a4.32,4.32,0,0,0,.07.74,2.35,2.35,0,0,0,.19.6,1.13,1.13,0,0,0,.32.41.77.77,0,0,0,.46.15.67.67,0,0,0,.44-.15,1.15,1.15,0,0,0,.33-.41,2,2,0,0,0,.19-.6A3.51,3.51,0,0,0,73.11,31Z"/><path d="M75,33a.59.59,0,0,1-.29-.07.52.52,0,0,1-.17-.19.77.77,0,0,1-.09-.28c0-.11,0-.23,0-.36V29.23h-.52v-.16h.52V27.93h.18v1.14h.7v.16h-.7v2.86a1.35,1.35,0,0,0,.09.57.34.34,0,0,0,.32.17h.16a.52.52,0,0,0,.15-.07l0,.15A1,1,0,0,1,75,33Z"/><path d="M76,31a4.79,4.79,0,0,0,.06.79,2,2,0,0,0,.19.61,1,1,0,0,0,.33.4.75.75,0,0,0,.47.15.73.73,0,0,0,.54-.2,1.55,1.55,0,0,0,.32-.48l.13.07a1.6,1.6,0,0,1-.36.54.89.89,0,0,1-.63.23.94.94,0,0,1-.53-.15,1.19,1.19,0,0,1-.38-.42,1.94,1.94,0,0,1-.24-.64,4.46,4.46,0,0,1-.08-.85,4.22,4.22,0,0,1,.08-.82,2.26,2.26,0,0,1,.23-.65,1.27,1.27,0,0,1,.38-.44.91.91,0,0,1,.52-.15.86.86,0,0,1,.52.15,1.11,1.11,0,0,1,.35.39,2,2,0,0,1,.18.58,3.85,3.85,0,0,1,.06.69V31Zm2-.16a3.8,3.8,0,0,0-.06-.7,1.83,1.83,0,0,0-.18-.53.84.84,0,0,0-.29-.35.73.73,0,0,0-.91.06,1.52,1.52,0,0,0-.32.45,2,2,0,0,0-.17.56,2.56,2.56,0,0,0,0,.51Z"/><path d="M79.23,29.81a2.53,2.53,0,0,0,0-.27v-.27c0-.08,0-.15,0-.2h.18a1.15,1.15,0,0,1,0,.2c0,.08,0,.17,0,.26V30h0a1.53,1.53,0,0,1,.35-.81A.69.69,0,0,1,80.3,29h.1v.16h-.1a.53.53,0,0,0-.39.16,1.14,1.14,0,0,0-.28.41,3,3,0,0,0-.16.57,3.47,3.47,0,0,0-.06.64v2h-.17V30C79.24,30,79.23,29.9,79.23,29.81Z"/><path d="M81.2,27.87a.16.16,0,0,1-.13-.06.21.21,0,0,1-.06-.16.2.2,0,0,1,.06-.15.16.16,0,0,1,.13-.06.16.16,0,0,1,.12.06.2.2,0,0,1,.06.15.21.21,0,0,1-.06.16A.17.17,0,0,1,81.2,27.87Zm-.09,5.06V29.07h.17v3.86Z"/><path d="M84.39,32.05c0,.15,0,.31,0,.47s0,.3,0,.41h-.17s0-.12,0-.2,0-.17,0-.26,0-.17,0-.25V32h0a1.43,1.43,0,0,1-.37.78.85.85,0,0,1-.6.24.87.87,0,0,1-.32-.06.76.76,0,0,1-.28-.2,1,1,0,0,1-.21-.35,1.51,1.51,0,0,1-.07-.5,1.23,1.23,0,0,1,.14-.65,1.14,1.14,0,0,1,.36-.39,1.15,1.15,0,0,1,.46-.19,2.57,2.57,0,0,1,.45,0h.44v-.3a1.58,1.58,0,0,0-.22-1,.71.71,0,0,0-.6-.3.8.8,0,0,0-.43.12,1,1,0,0,0-.33.33l-.12-.11a1.06,1.06,0,0,1,.88-.5.86.86,0,0,1,.73.34,1.74,1.74,0,0,1,.27,1.07Zm-.18-1.24h-.39a2.25,2.25,0,0,0-.44,0A1.18,1.18,0,0,0,83,31a.85.85,0,0,0-.31.34,1.15,1.15,0,0,0-.12.57,1.42,1.42,0,0,0,.07.45.82.82,0,0,0,.17.29.69.69,0,0,0,.23.16.59.59,0,0,0,.25,0,.73.73,0,0,0,.47-.15,1.13,1.13,0,0,0,.29-.41,1.79,1.79,0,0,0,.16-.54,4,4,0,0,0,0-.58Z"/><path d="M87.31,30a1.59,1.59,0,0,1,.35-.8.85.85,0,0,1,.66-.3.76.76,0,0,1,.5.14.85.85,0,0,1,.27.35,1.43,1.43,0,0,1,.13.46c0,.17,0,.33,0,.48v2.56h-.17V30.37a3.22,3.22,0,0,0,0-.43,1.3,1.3,0,0,0-.1-.41.72.72,0,0,0-.23-.31.61.61,0,0,0-.39-.12.67.67,0,0,0-.44.15,1,1,0,0,0-.32.38,1.94,1.94,0,0,0-.2.51,2.64,2.64,0,0,0-.06.55v2.24h-.18V29.81c0-.08,0-.18,0-.27a2.44,2.44,0,0,0,0-.27,1.15,1.15,0,0,0,0-.2h.18c0,.05,0,.12,0,.2s0,.18,0,.27V30Z"/><path d="M92.32,32.05c0,.15,0,.31,0,.47s0,.3,0,.41H92.2a1,1,0,0,1,0-.2,2.26,2.26,0,0,1,0-.26c0-.09,0-.17,0-.25V32h0a1.58,1.58,0,0,1-.37.78.87.87,0,0,1-.92.18.8.8,0,0,1-.29-.2,1.19,1.19,0,0,1-.2-.35,1.5,1.5,0,0,1-.08-.5,1.23,1.23,0,0,1,.15-.65,1,1,0,0,1,.36-.39,1.15,1.15,0,0,1,.46-.19,2.57,2.57,0,0,1,.45,0h.44v-.3a1.66,1.66,0,0,0-.22-1,.71.71,0,0,0-.6-.3.8.8,0,0,0-.43.12,1,1,0,0,0-.33.33l-.12-.11a1.06,1.06,0,0,1,.88-.5.86.86,0,0,1,.73.34,1.74,1.74,0,0,1,.27,1.07Zm-.18-1.24h-.39a2.35,2.35,0,0,0-.45,0,1.13,1.13,0,0,0-.41.16.85.85,0,0,0-.31.34,1.15,1.15,0,0,0-.12.57,1.18,1.18,0,0,0,.07.45.82.82,0,0,0,.17.29.69.69,0,0,0,.23.16.59.59,0,0,0,.25,0,.69.69,0,0,0,.46-.15,1.15,1.15,0,0,0,.3-.41,2.13,2.13,0,0,0,.16-.54,4,4,0,0,0,0-.58Z"/><path d="M95.34,32.56a.91.91,0,0,1-.82.5.84.84,0,0,1-.5-.15,1.32,1.32,0,0,1-.38-.43,2.6,2.6,0,0,1-.23-.65,4.35,4.35,0,0,1,0-1.66,2,2,0,0,1,.23-.65,1.13,1.13,0,0,1,.37-.43.9.9,0,0,1,.51-.15,1,1,0,0,1,.48.12.85.85,0,0,1,.32.33l-.12.12a.7.7,0,0,0-.29-.32.77.77,0,0,0-.39-.11.72.72,0,0,0-.45.15,1.07,1.07,0,0,0-.32.4,2.57,2.57,0,0,0-.18.61,4.42,4.42,0,0,0-.06.76,4.35,4.35,0,0,0,.06.74,2.36,2.36,0,0,0,.18.6,1,1,0,0,0,.32.41.75.75,0,0,0,.87,0,.91.91,0,0,0,.3-.34Z"/><path d="M96.22,27.87a.18.18,0,0,1-.13-.06.21.21,0,0,1,0-.16.2.2,0,0,1,0-.15.17.17,0,0,1,.26,0,.25.25,0,0,1,.05.15.21.21,0,0,1-.06.16A.17.17,0,0,1,96.22,27.87Zm-.09,5.06V29.07h.18v3.86Z"/><path d="M99.82,31a4.25,4.25,0,0,1-.08.83,2.59,2.59,0,0,1-.24.65,1.45,1.45,0,0,1-.38.43.9.9,0,0,1-.51.15.87.87,0,0,1-.5-.15,1.32,1.32,0,0,1-.38-.43,2,2,0,0,1-.24-.65A3.58,3.58,0,0,1,97.4,31a4.25,4.25,0,0,1,.08-.83,2.26,2.26,0,0,1,.24-.65,1.07,1.07,0,0,1,.38-.43.94.94,0,0,1,1,0,1.24,1.24,0,0,1,.38.43,2.59,2.59,0,0,1,.24.65A4.25,4.25,0,0,1,99.82,31Zm-.18,0a4.42,4.42,0,0,0-.06-.76,3.12,3.12,0,0,0-.2-.61,1.18,1.18,0,0,0-.32-.4.74.74,0,0,0-.45-.15.72.72,0,0,0-.45.15,1.07,1.07,0,0,0-.32.4,2.57,2.57,0,0,0-.2.61,4.42,4.42,0,0,0-.06.76,4.35,4.35,0,0,0,.06.74,2.35,2.35,0,0,0,.2.6,1,1,0,0,0,.32.41.75.75,0,0,0,.9,0,1,1,0,0,0,.32-.41,2,2,0,0,0,.2-.6A4.35,4.35,0,0,0,99.64,31Z"/><path d="M101.12,30a1.51,1.51,0,0,1,.35-.8.83.83,0,0,1,.66-.3.73.73,0,0,1,.49.14.87.87,0,0,1,.28.35,1.73,1.73,0,0,1,.12.46,4.12,4.12,0,0,1,0,.48v2.56h-.17V30.37a3.22,3.22,0,0,0,0-.43,1.3,1.3,0,0,0-.1-.41.81.81,0,0,0-.23-.31.61.61,0,0,0-.39-.12.72.72,0,0,0-.45.15,1.22,1.22,0,0,0-.32.38,1.93,1.93,0,0,0-.19.51,2.64,2.64,0,0,0-.06.55v2.24h-.18V29.81c0-.08,0-.18,0-.27s0-.18,0-.27,0-.15,0-.2h.18a1.56,1.56,0,0,0,0,.2,2.44,2.44,0,0,0,0,.27V30Z"/><path d="M106.12,32.05c0,.15,0,.31,0,.47s0,.3,0,.41H106s0-.12,0-.2,0-.17,0-.26v-.25a1.62,1.62,0,0,1,0-.21h0a1.58,1.58,0,0,1-.37.78A.85.85,0,0,1,105,33a.81.81,0,0,1-.31-.06.8.8,0,0,1-.29-.2,1.19,1.19,0,0,1-.2-.35,1.5,1.5,0,0,1-.08-.5,1.23,1.23,0,0,1,.15-.65,1,1,0,0,1,.36-.39,1.1,1.1,0,0,1,.46-.19,2.42,2.42,0,0,1,.45,0H106v-.3a1.58,1.58,0,0,0-.23-1,.71.71,0,0,0-.6-.3.79.79,0,0,0-.42.12,1,1,0,0,0-.34.33l-.12-.11a1.1,1.1,0,0,1,.4-.37,1,1,0,0,1,.48-.13.88.88,0,0,1,.74.34,1.74,1.74,0,0,1,.26,1.07ZM106,30.81h-.39a2.28,2.28,0,0,0-.45,0,1.13,1.13,0,0,0-.41.16.85.85,0,0,0-.31.34,1.15,1.15,0,0,0-.12.57,1.18,1.18,0,0,0,.07.45.82.82,0,0,0,.17.29.6.6,0,0,0,.23.16.56.56,0,0,0,.25,0,.71.71,0,0,0,.46-.15,1.28,1.28,0,0,0,.3-.41,2.13,2.13,0,0,0,.15-.54,4,4,0,0,0,0-.58Z"/><path d="M107.4,32.93V26.88h.18v6.05Z"/><path class="a" d="M16.51,5.71v10.8H5.71a5.22,5.22,0,0,1,0-10.43h.37V5.71a5.22,5.22,0,0,1,10.43,0Z"/><path class="b" d="M17,5.71v10.8h10.8a5.22,5.22,0,0,0,0-10.43h-.37V5.71A5.22,5.22,0,0,0,17,5.71Z"/><path class="b" d="M16.51,27.86V17.06H5.71a5.22,5.22,0,0,0,0,10.43h.37v.37a5.22,5.22,0,0,0,10.43,0Z"/><path class="a" d="M17,27.86V17.06h10.8a5.22,5.22,0,0,1,0,10.43h-.37v.37a5.22,5.22,0,0,1-10.43,0Z"/></svg>